<?xml version="1.0" standalone="no"?>
<!DOCTYPE svg PUBLIC "-//W3C//DTD SVG 20010904//EN"
 "http://www.w3.org/TR/2001/REC-SVG-20010904/DTD/svg10.dtd">
<svg version="1.0" xmlns="http://www.w3.org/2000/svg"
 width="1125.000000pt" height="957.000000pt" viewBox="0 0 1125.000000 957.000000"
 preserveAspectRatio="xMidYMid meet">

<g transform="translate(0.000000,957.000000) scale(0.100000,-0.100000)"
fill="#000000" stroke="none">
<path d="M5235 8480 c-368 -47 -579 -95 -885 -205 -262 -94 -588 -263 -818
-424 -414 -290 -710 -587 -974 -976 -131 -195 -296 -502 -372 -695 -48 -124
-98 -265 -106 -300 -5 -19 -24 -91 -43 -160 -36 -129 -74 -309 -83 -402 -3
-29 -10 -82 -15 -118 -6 -36 -13 -184 -16 -330 -4 -210 -2 -295 11 -410 9 -80
18 -168 21 -196 13 -139 89 -471 144 -629 6 -16 23 -66 37 -110 15 -44 42
-111 59 -150 18 -38 50 -108 71 -155 124 -272 360 -638 562 -870 95 -109 355
-362 427 -415 22 -16 63 -48 90 -71 61 -50 290 -214 299 -214 4 0 33 -17 64
-38 31 -21 93 -57 137 -79 44 -22 109 -56 145 -75 257 -136 632 -259 990 -323
238 -43 300 -48 640 -49 284 0 345 3 485 22 694 97 1281 346 1840 781 144 112
454 422 583 584 341 426 583 918 718 1457 15 58 30 128 34 155 5 28 16 86 25
130 34 163 47 445 35 740 -10 261 -29 449 -46 477 -5 7 -12 40 -15 73 -4 33
-15 87 -24 120 -47 168 -59 209 -92 310 -42 128 -84 238 -118 313 -14 29 -25
55 -25 57 0 7 -82 172 -120 240 -148 269 -254 426 -425 630 -138 165 -251 276
-510 503 -46 41 -113 90 -155 115 -25 15 -61 41 -80 58 -19 17 -53 40 -75 51
-22 12 -52 29 -67 39 -15 11 -41 28 -57 38 -73 50 -393 212 -487 247 -178 67
-264 97 -324 114 -36 10 -92 26 -125 35 -33 10 -78 21 -100 25 -22 4 -98 19
-168 34 -230 47 -336 57 -647 61 -249 4 -318 1 -445 -15z m15 -1922 c210 -90
310 -150 467 -282 248 -207 441 -480 502 -707 22 -82 58 -335 49 -344 -3 -3
-50 -4 -104 -3 l-99 3 73 48 c75 50 91 79 50 91 -21 6 -154 15 -488 32 l-114
6 29 22 c66 47 90 74 78 86 -8 9 -138 14 -464 19 l-454 6 119 65 c135 74 194
127 254 228 67 112 90 222 73 345 -16 115 -34 168 -106 310 -36 71 -63 132
-60 137 7 11 65 -7 195 -62z m2084 -903 c170 -60 161 -54 134 -96 -13 -19 -50
-77 -83 -129 l-60 -95 -7 40 c-4 22 -7 59 -7 83 -1 24 -6 42 -12 42 -6 0 -43
-24 -83 -54 -299 -225 -567 -343 -822 -362 -90 -7 -685 14 -696 25 -4 3 20 34
53 68 32 35 59 68 59 74 0 9 -39 10 -147 5 -169 -7 -553 -10 -559 -3 -2 2 32
28 76 58 63 42 76 55 63 61 -27 10 -313 9 -506 -2 -476 -28 -669 -80 -926
-247 -53 -35 -87 -51 -93 -45 -34 34 157 194 326 273 309 144 589 175 1395
152 l234 -6 -25 -21 c-15 -12 -45 -34 -67 -49 -23 -16 -41 -32 -41 -37 0 -9
95 -17 295 -25 270 -10 345 -16 345 -28 0 -7 -42 -39 -93 -72 l-92 -60 205 -3
c224 -3 305 6 419 44 100 34 250 105 331 156 36 23 88 56 115 73 28 18 83 53
123 79 l74 47 -36 39 c-35 39 -45 60 -28 60 4 0 66 -20 136 -45z m-2779 -933
c0 -133 1 -242 2 -242 2 0 21 19 42 43 22 24 64 56 93 72 45 25 67 30 143 33
136 6 216 -30 279 -125 47 -71 56 -145 56 -505 0 -285 -2 -328 -15 -328 -8 -1
-58 -1 -110 -1 -52 0 -115 0 -139 1 l-45 0 -3 308 c-3 334 -6 350 -59 378 -16
8 -53 14 -83 14 -47 0 -60 -4 -90 -30 -64 -57 -66 -67 -66 -378 0 -201 -3
-283 -12 -288 -11 -7 -289 -6 -296 1 -3 2 -5 1242 -2 1288 0 4 69 6 153 5
l152 -3 0 -243z m2925 -92 c0 -187 3 -340 8 -340 4 0 67 72 141 160 l135 160
173 0 c95 0 173 -3 173 -7 0 -3 -44 -52 -99 -107 -165 -170 -230 -241 -231
-251 0 -6 79 -136 175 -290 96 -154 171 -282 167 -285 -4 -3 -83 -3 -176 0
l-168 5 -102 168 c-55 92 -105 167 -111 167 -5 0 -27 -17 -47 -38 l-37 -39 -3
-133 -3 -133 -150 1 -150 1 -3 638 c-1 351 0 644 3 651 3 9 44 12 155 12 l150
0 0 -340z m-3625 286 c91 -31 160 -67 204 -105 l29 -26 -56 -102 c-31 -57 -61
-103 -65 -103 -5 0 -35 16 -66 35 -32 20 -89 47 -127 60 -127 45 -272 27 -299
-37 -31 -76 11 -115 192 -178 168 -58 235 -88 290 -128 125 -93 168 -280 99
-436 -49 -110 -186 -210 -325 -236 -76 -14 -234 -12 -312 4 -126 27 -318 125
-319 163 0 12 17 40 103 176 27 41 57 62 57 39 0 -13 139 -88 200 -108 59 -19
162 -24 221 -11 54 11 81 39 86 90 5 41 3 46 -34 77 -27 23 -85 48 -191 85
-83 30 -175 66 -203 81 -109 60 -174 157 -186 277 -18 197 108 352 329 402
101 23 274 14 373 -19z m2075 -302 c84 -19 175 -75 212 -131 58 -87 62 -114
65 -422 3 -247 6 -291 23 -338 10 -29 15 -53 12 -54 -24 -3 -316 1 -319 4 -2
3 -7 23 -11 47 l-7 42 -40 -32 c-82 -66 -110 -75 -230 -75 -95 0 -117 3 -162
24 -62 28 -125 92 -144 147 -22 63 -18 181 8 230 64 121 205 182 463 202 l95
7 -1 38 c-4 121 -195 150 -395 61 -34 -16 -63 -23 -68 -18 -8 9 -71 175 -71
187 0 14 86 50 174 73 112 29 290 32 396 8z m1120 -7 c0 -12 -7 -77 -15 -142
-8 -66 -15 -121 -15 -121 0 -1 -33 -1 -72 -1 -102 1 -162 -35 -212 -128 -20
-37 -21 -57 -24 -292 -2 -139 -6 -253 -10 -253 -4 -1 -72 -2 -152 -3 l-145 -1
0 469 0 470 29 5 c16 3 82 4 147 2 l119 -3 1 -37 c1 -20 4 -50 8 -67 l6 -30
25 33 c29 40 102 95 145 110 17 6 60 11 98 11 63 1 67 0 67 -22z m238 -1019
c7 -7 12 -26 12 -43 0 -40 -16 -55 -60 -55 -20 0 -41 5 -48 12 -17 17 -15 64
4 82 18 19 75 21 92 4z m-178 -243 l0 -235 -55 0 c-42 0 -55 3 -55 15 0 19 -3
19 -42 -5 -101 -61 -213 25 -212 161 1 111 67 185 157 176 26 -2 56 -12 67
-22 20 -18 20 -17 20 63 l0 82 60 0 60 0 0 -235z m-960 177 l0 -48 -57 1 -58
0 -3 -182 -2 -183 -60 0 -60 0 0 180 c0 178 0 180 -22 184 -13 3 -39 4 -58 3
-35 -2 -35 -2 -38 46 l-3 47 180 0 181 0 0 -48z m216 -75 c2 -7 1 -31 -4 -52
-7 -35 -12 -40 -37 -43 -17 -2 -40 -13 -52 -25 -21 -19 -23 -30 -23 -119 l0
-98 -60 0 -60 0 0 170 0 170 54 0 c47 0 54 -3 60 -22 5 -20 7 -21 18 -7 29 36
94 52 104 26z m254 -3 c64 -26 77 -63 81 -229 l3 -109 -55 3 c-29 1 -57 7 -60
13 -4 6 -19 4 -39 -7 -78 -40 -180 10 -180 89 0 69 68 116 168 116 35 0 42 3
42 20 0 41 -73 49 -150 16 -12 -5 -19 3 -29 30 -7 20 -9 40 -5 44 31 30 164
38 224 14z m1030 3 c47 -23 60 -69 60 -209 l0 -128 -55 0 -55 0 0 100 c0 114
-11 150 -48 150 -52 0 -62 -23 -62 -142 l0 -109 -57 3 -58 3 -3 168 -2 167 55
0 c48 0 55 -2 55 -20 0 -11 5 -20 10 -20 6 0 10 4 10 9 0 14 62 41 95 41 17 0
41 -6 55 -13z m309 2 c17 -6 31 -15 31 -20 0 -5 5 -9 10 -9 6 0 10 7 10 15 0
12 13 15 56 15 l56 0 -4 -172 c-3 -151 -6 -177 -23 -207 -38 -64 -65 -76 -173
-76 -54 0 -109 6 -125 13 -27 12 -27 12 -12 49 9 20 17 38 18 40 2 1 21 -4 42
-12 85 -30 147 -12 161 48 7 31 -1 34 -27 11 -28 -25 -98 -29 -139 -6 -45 24
-80 91 -80 152 0 119 95 195 199 159z m-659 -169 l0 -170 -60 0 -60 0 0 170 0
170 60 0 60 0 0 -170z"/>
<path d="M5775 4080 c-66 -10 -96 -23 -121 -51 -28 -31 -34 -62 -23 -103 25
-89 162 -99 236 -18 32 35 34 40 31 107 l-3 70 -35 1 c-19 1 -57 -2 -85 -6z"/>
<path d="M6880 3343 c-41 -52 -10 -153 47 -153 47 0 69 43 63 120 -5 61 -72
81 -110 33z"/>
<path d="M6512 3249 c-18 -7 -23 -15 -20 -36 2 -22 9 -29 31 -31 37 -4 57 13
57 49 0 24 -4 29 -22 28 -13 0 -33 -4 -46 -10z"/>
<path d="M7896 3348 c-23 -32 -20 -94 4 -118 61 -61 145 43 90 113 -27 34 -72
37 -94 5z"/>
</g>
</svg>
